<svg width="32" height="32" viewBox="0 0 32 32" fill="none" xmlns="http://www.w3.org/2000/svg">
<path d="M12 24H20Z" fill="url(#paint0_linear_249_1640)"/>
<path d="M13.3333 29.3334H18.6667Z" fill="url(#paint1_linear_249_1640)"/>
<path d="M22 15.3334C20.9333 16.4 20.2667 17.3334 20 18.6667H12C11.7333 17.3334 10.9333 16.2667 10 15.3334C8.26667 13.6 8 12 8 10.6667C8 8.54496 8.84285 6.51012 10.3431 5.00983C11.8434 3.50954 13.8783 2.66669 16 2.66669C18.1217 2.66669 20.1566 3.50954 21.6569 5.00983C23.1571 6.51012 24 8.54496 24 10.6667C24 12.4 23.3333 14.1334 22 15.3334Z" fill="url(#paint2_linear_249_1640)"/>
<path d="M12 24H20M13.3333 29.3334H18.6667M22 15.3334C20.9333 16.4 20.2667 17.3334 20 18.6667H12C11.7333 17.3334 10.9333 16.2667 10 15.3334C8.26667 13.6 8 12 8 10.6667C8 8.54496 8.84285 6.51012 10.3431 5.00983C11.8434 3.50954 13.8783 2.66669 16 2.66669C18.1217 2.66669 20.1566 3.50954 21.6569 5.00983C23.1571 6.51012 24 8.54496 24 10.6667C24 12.4 23.3333 14.1334 22 15.3334Z" stroke="url(#paint3_linear_249_1640)" stroke-width="2.66667" stroke-linecap="round" stroke-linejoin="round"/>
<defs>
<linearGradient id="paint0_linear_249_1640" x1="16" y1="2.66669" x2="16" y2="29.3334" gradientUnits="userSpaceOnUse">
<stop stop-color="#FC4F6A"/>
<stop offset="1" stop-color="#F8315A"/>
</linearGradient>
<linearGradient id="paint1_linear_249_1640" x1="16" y1="2.66669" x2="16" y2="29.3334" gradientUnits="userSpaceOnUse">
<stop stop-color="#FC4F6A"/>
<stop offset="1" stop-color="#F8315A"/>
</linearGradient>
<linearGradient id="paint2_linear_249_1640" x1="16" y1="2.66669" x2="16" y2="29.3334" gradientUnits="userSpaceOnUse">
<stop stop-color="#FC4F6A"/>
<stop offset="1" stop-color="#F8315A"/>
</linearGradient>
<linearGradient id="paint3_linear_249_1640" x1="16" y1="2.66669" x2="16" y2="29.3334" gradientUnits="userSpaceOnUse">
<stop stop-color="#FC4F6A"/>
<stop offset="1" stop-color="#F8315A"/>
</linearGradient>
</defs>
</svg>
